HIERARCHY
ROOT SpineBase
{
  OFFSET 0.000000 0.000000 0.000000
  CHANNELS 6 Xposition Yposition Zposition Zrotation Xrotation Yrotation
  JOINT SpineMid
  {
    OFFSET -0.000000 27.681777 0.000000
    CHANNELS 3 Zrotation Xrotation Yrotation
    JOINT SpineShoulder
    {
      OFFSET 0.242417 20.600678 -0.442545
      CHANNELS 3 Zrotation Xrotation Yrotation
      JOINT Neck
      {
        OFFSET 0.122923 6.850555 -0.377829
        CHANNELS 3 Zrotation Xrotation Yrotation
        JOINT Head
        {
          OFFSET -4.032322 12.568386 -0.339945
          CHANNELS 3 Zrotation Xrotation Yrotation
          End Site
          {
            OFFSET 0 0 0
          }
        }
      }
      JOINT ShoulderLeft
      {
        OFFSET -16.074308 -3.708144 6.729884
        CHANNELS 3 Zrotation Xrotation Yrotation
        JOINT ElbowLeft
        {
          OFFSET -3.419005 -24.390234 1.584704
          CHANNELS 3 Zrotation Xrotation Yrotation
          JOINT WristLeft
          {
            OFFSET 0.002428 -20.190586 -5.825169
            CHANNELS 3 Zrotation Xrotation Yrotation
            JOINT HandLeft
            {
              OFFSET 0.472232 -6.737822 -1.954230
              CHANNELS 3 Zrotation Xrotation Yrotation
              JOINT HandTipLeft
              {
                OFFSET 0.107441 -6.575996 -1.263859
                CHANNELS 3 Zrotation Xrotation Yrotation
                End Site
                {
                  OFFSET 0 0 0
                }
              }
              JOINT ThumbLeft
              {
                OFFSET 3.305710 -1.014305 -2.675710
                CHANNELS 3 Zrotation Xrotation Yrotation
                End Site
                {
                  OFFSET 0 0 0
                }
              }
            }
          }
        }
      }
      JOINT ShoulderRight
      {
        OFFSET 13.958637 -2.075608 -5.597777
        CHANNELS 3 Zrotation Xrotation Yrotation
        JOINT ElbowRight
        {
          OFFSET 6.996655 -22.834319 1.500163
          CHANNELS 3 Zrotation Xrotation Yrotation
          JOINT WristRight
          {
            OFFSET -1.685530 -23.627861 -5.511141
            CHANNELS 3 Zrotation Xrotation Yrotation
            JOINT HandRight
            {
              OFFSET -2.066699 -6.559233 -0.562464
              CHANNELS 3 Zrotation Xrotation Yrotation
              JOINT HandTipRight
              {
                OFFSET 0.590734 -6.299625 -0.518801
                CHANNELS 3 Zrotation Xrotation Yrotation
                End Site
                {
                  OFFSET 0 0 0
                }
              }
              JOINT ThumbRight
              {
                OFFSET 3.289051 -0.857073 -1.214390
                CHANNELS 3 Zrotation Xrotation Yrotation
                End Site
                {
                  OFFSET 0 0 0
                }
              }
            }
          }
        }
      }
    }
  }
  JOINT HipLeft
  {
    OFFSET -6.266181 -0.022496 -0.685247
    CHANNELS 3 Zrotation Xrotation Yrotation
    JOINT KneeLeft
    {
      OFFSET 1.060964 -36.999251 7.444727
      CHANNELS 3 Zrotation Xrotation Yrotation
      JOINT AnkleLeft
      {
        OFFSET 1.440582 -30.199313 3.796638
        CHANNELS 3 Zrotation Xrotation Yrotation
        JOINT FootLeft
        {
          OFFSET 3.581691 -6.960006 -6.455361
          CHANNELS 3 Zrotation Xrotation Yrotation
          End Site
          {
            OFFSET 0 0 0
          }
        }
      }
    }
  }
  JOINT HipRight
  {
    OFFSET 6.863549 1.611117 -5.578031
    CHANNELS 3 Zrotation Xrotation Yrotation
    JOINT KneeRight
    {
      OFFSET 3.847922 -38.225915 4.994045
      CHANNELS 3 Zrotation Xrotation Yrotation
      JOINT AnkleRight
      {
        OFFSET -0.553254 -30.194775 5.027734
        CHANNELS 3 Zrotation Xrotation Yrotation
        JOINT FootRight
        {
          OFFSET -3.668523 -3.484646 -12.318844
          CHANNELS 3 Zrotation Xrotation Yrotation
          End Site
          {
            OFFSET 0 0 0
          }
        }
      }
    }
  }
}
MOTION
Frames: 10
Frame Time: 0.033333
-32.244055 75.119539 342.976969 0.000000 0.000000 20.437869 -0.000000 0.000000 -20.437869 -0.000000 0.000000 0.000000 -0.000000 0.000000 0.000000 0.000000 0.000000 0.000000 -0.000000 0.000000 0.000000 -0.000000 0.000000 0.000000 -0.000000 0.000000 0.000000 -0.000000 0.000000 0.000000 0.000000 0.000000 0.000000 0.000000 0.000000 0.000000 -0.000000 0.000000 0.000000 -0.000000 0.000000 0.000000 -0.000000 0.000000 0.000000 -0.000000 0.000000 0.000000 0.000000 0.000000 0.000000 0.000000 0.000000 0.000000 -0.000000 0.000000 -20.437869 -0.000000 0.000000 0.000000 -0.000000 0.000000 0.000000 0.000000 0.000000 0.000000 -0.000000 0.000000 -20.437869 -0.000000 0.000000 0.000000 -0.000000 0.000000 0.000000 0.000000 0.000000 0.000000
-32.177915 75.106284 343.224539 0.117704 -0.333559 20.346667 0.005618 0.353672 -20.346342 -0.000000 0.000000 0.000000 -0.000000 0.000000 0.000000 0.000000 0.000000 0.000000 -0.000000 0.000000 0.000000 0.879485 -2.987743 -0.232919 -0.085393 1.922806 -0.063332 0.201495 -0.503232 0.091936 0.000000 0.000000 0.000000 0.000000 0.000000 0.000000 -0.000000 0.000000 0.000000 1.333740 -2.341103 -0.117480 0.210027 1.461188 0.266213 -1.947598 -0.488409 -0.228202 0.000000 0.000000 0.000000 0.000000 0.000000 0.000000 0.005618 0.353672 -20.346342 -0.000000 0.000000 0.000000 -0.833305 -1.546223 -0.034661 0.000000 0.000000 0.000000 0.005618 0.353672 -20.346342 -0.000000 0.000000 0.000000 -0.000000 0.000000 0.000000 0.000000 0.000000 0.000000
-32.131113 75.093021 343.425543 0.212267 -0.590098 20.271077 -0.026553 -0.250639 -20.254201 0.160436 -0.424702 0.031281 -0.414495 2.270308 0.282527 0.000000 0.000000 0.000000 -0.433780 1.259415 -0.041778 1.471533 -5.002043 -0.365502 -0.264626 3.416642 -0.064653 0.573057 -1.021226 0.088271 0.000000 0.000000 0.000000 0.000000 0.000000 0.000000 -0.483916 0.402344 -0.306839 2.314563 -3.162022 0.071661 0.447327 2.745027 0.333301 -3.394244 -0.973546 -0.298732 0.000000 0.000000 0.000000 0.000000 0.000000 0.000000 0.005323 0.627091 -20.270013 -0.000000 0.000000 0.000000 -1.397643 -2.700783 -0.130356 0.000000 0.000000 0.000000 0.005323 0.627091 -20.270013 -0.000000 0.000000 0.000000 -0.000000 0.000000 0.000000 0.000000 0.000000 0.000000
-32.103649 75.079749 343.579982 0.283755 -0.769809 20.210901 -0.019909 -0.358952 -20.187455 0.219313 -0.561773 0.042975 -0.437732 2.857507 0.322237 0.000000 0.000000 0.000000 -0.606885 1.675879 -0.054708 1.793658 -6.078940 -0.429590 -0.502089 4.464362 -0.000013 1.100211 -1.555801 -0.001345 0.000000 0.000000 0.000000 0.000000 0.000000 0.000000 -0.595417 0.651721 -0.367745 2.747021 -3.995576 0.102549 0.743492 3.808486 0.221358 -4.376618 -1.551578 -0.242049 0.000000 0.000000 0.000000 0.000000 0.000000 0.000000 -0.000343 0.820437 -20.208992 -0.000000 0.000000 0.000000 -1.683794 -3.447226 -0.273050 0.000000 0.000000 0.000000 -0.000343 0.820437 -20.208992 -0.376839 0.888361 -0.076198 0.378066 -0.887840 0.082048 0.000000 0.000000 0.000000
-32.095522 75.066469 343.687857 0.332207 -0.872799 20.165972 -0.000210 -0.456443 -20.137576 0.264157 -0.649394 0.051964 -0.337963 3.083709 0.292323 0.000000 0.000000 0.000000 -0.751446 1.951570 -0.063720 1.857932 -6.252365 -0.442314 -0.793394 5.086827 0.134221 1.790136 -2.125724 -0.171924 0.000000 0.000000 0.000000 0.000000 0.000000 0.000000 -0.620316 0.928751 -0.371404 2.679127 -4.304330 0.114330 1.116447 4.637321 -0.053720 -4.915728 -2.280395 -0.071740 0.000000 0.000000 0.000000 0.000000 0.000000 0.000000 -0.010969 0.933815 -20.163353 -0.000000 0.000000 0.000000 -1.685699 -3.776811 -0.453588 0.000000 0.000000 0.000000 -0.010969 0.933815 -20.163353 -0.472617 1.074291 -0.094089 0.474464 -1.073476 0.102965 0.000000 0.000000 0.000000
-32.106734 75.053180 343.749166 0.357636 -0.899089 20.136161 0.032463 -0.543337 -20.104549 0.295059 -0.687775 0.058189 -0.114794 2.948569 0.193921 0.000000 0.000000 0.000000 -0.867775 2.086900 -0.069567 1.671342 -5.545372 -0.407643 -1.718696 5.530920 0.571618 3.216243 -2.979146 -0.585985 0.000000 0.000000 0.000000 0.000000 0.000000 0.000000 -0.558313 1.232985 -0.319348 2.108069 -4.083650 0.102505 1.572000 5.241119 -0.480016 -5.017376 -3.194662 0.214212 0.000000 0.000000 0.000000 0.000000 0.000000 0.000000 -0.026283 0.967245 -20.133133 -0.000000 0.000000 0.000000 -1.400478 -3.687159 -0.668335 0.000000 0.000000 0.000000 -0.026283 0.967245 -20.133133 -0.552972 1.203583 -0.108502 0.555373 -1.202477 0.120138 0.000000 0.000000 0.000000
-32.124562 75.039810 343.806368 0.378850 -0.889412 20.235488 0.063922 -0.582464 -20.202132 0.289764 -0.606460 0.058452 0.090991 2.550431 0.085437 0.000000 0.000000 0.000000 -0.139139 1.772168 -0.011148 0.658973 -4.902203 -0.450702 -1.493423 5.138368 0.492150 2.952052 -2.170468 -0.548784 0.000000 0.000000 0.000000 0.000000 0.000000 0.000000 -0.499991 1.355503 -0.259207 2.029202 -4.017727 0.012273 2.770491 5.978674 -1.014372 -4.591063 -3.274261 0.601155 0.000000 0.000000 0.000000 0.000000 0.000000 0.000000 -0.047861 0.965546 -20.232144 -0.000000 0.000000 0.000000 -0.449860 -2.725956 -1.021099 0.000000 0.000000 0.000000 -0.047861 0.965546 -20.232144 -0.621322 1.301953 -0.120470 0.624219 -1.300567 0.134615 0.000000 0.000000 0.000000
-32.184898 75.036878 343.760151 0.300259 -0.811342 20.168033 0.087893 -0.617559 -20.137282 0.266516 -0.478223 0.052133 0.677316 1.851159 -0.070469 0.000000 0.000000 0.000000 0.065013 1.432147 0.024107 -0.014758 -2.889462 -0.361079 -2.659875 4.253135 0.973060 4.644525 -5.511469 -1.033505 0.000000 0.000000 0.000000 0.000000 0.000000 0.000000 -0.860116 1.839972 -0.066695 1.687808 -3.009568 -0.135596 5.690737 4.614006 -1.430367 -5.007516 -4.843055 0.704106 0.000000 0.000000 0.000000 0.000000 0.000000 0.000000 -0.002131 0.865113 -20.165891 -0.000000 0.000000 0.000000 0.654512 -1.678550 -1.476980 0.000000 0.000000 0.000000 -0.002131 0.865113 -20.165891 -0.695293 1.344538 -0.132497 0.698592 -1.342827 0.148842 0.000000 0.000000 0.000000
-32.283848 75.038130 343.669770 0.220181 -0.545313 20.184726 0.206863 -0.697239 -20.156024 0.265162 -0.405969 0.051546 1.214327 0.444063 -0.392382 0.000000 0.000000 0.000000 0.321208 1.532008 -0.018255 -1.587103 1.053907 0.023054 -4.019662 3.531088 1.573202 6.648758 -6.266615 -1.664076 0.000000 0.000000 0.000000 0.000000 0.000000 0.000000 0.136353 1.900947 0.083665 -1.892283 -0.125241 -0.009647 6.843867 3.489756 -2.068673 -4.236617 -6.856589 1.266425 0.000000 0.000000 0.000000 0.000000 0.000000 0.000000 -0.018504 0.587794 -20.183583 -0.000000 0.000000 0.000000 1.525399 -0.532029 -1.677200 0.000000 0.000000 0.000000 -0.018504 0.587794 -20.183583 -0.723792 1.243409 -0.135679 0.726905 -1.241591 0.151410 0.000000 0.000000 0.000000
-32.388066 75.026135 343.531061 0.171680 -0.166455 19.945999 0.345668 -0.750788 -19.918403 0.255030 -0.347781 0.051670 2.060280 -1.906841 -0.917906 0.000000 0.000000 0.000000 0.529811 1.848532 -0.110303 -3.545537 6.331254 0.662910 -5.709111 6.143160 2.594234 8.889632 -8.620732 -2.130769 0.000000 0.000000 0.000000 0.000000 0.000000 0.000000 0.694166 2.739257 0.488812 -5.583198 2.937571 -0.005786 2.361090 3.751773 -2.896363 -0.800596 -7.412206 2.528300 0.000000 0.000000 0.000000 0.000000 0.000000 0.000000 -0.104599 0.215035 -19.945553 -0.000000 0.000000 0.000000 2.177672 0.298103 -1.849563 0.000000 0.000000 0.000000 -0.104599 0.215035 -19.945553 -0.684247 1.088190 -0.127564 0.686792 -1.086586 0.140575 0.000000 0.000000 0.000000
